<svg xmlns="http://www.w3.org/2000/svg" width="82.735" height="74.165" viewBox="0 0 82.735 74.165">
  <g id="_2_Arrows" data-name="2 Arrows" transform="matrix(0.985, -0.174, 0.174, 0.985, -215.797, -147.472)">
    <path id="arrow-up" d="M2.879,22.529.694,20.343a2.353,2.353,0,0,1,0-3.337L17.961.694a2.353,2.353,0,0,1,3.337,0L37.582,17.007a2.353,2.353,0,0,1,0,3.337L35.4,22.529a2.365,2.365,0,0,1-3.376-.039l-8.45-9.039V52.843A2.357,2.357,0,0,1,21.209,55.2H17.961A2.275,2.275,0,0,1,15.7,52.843V13.45L6.255,22.489A2.348,2.348,0,0,1,2.879,22.529Z" transform="translate(256.664 263.564) rotate(180)"/>
    <path id="arrow-up-2" data-name="arrow-up" d="M2.879,22.529.694,20.343a2.353,2.353,0,0,1,0-3.337L17.961.694a2.353,2.353,0,0,1,3.337,0L37.582,17.007a2.353,2.353,0,0,1,0,3.337L35.4,22.529a2.365,2.365,0,0,1-3.376-.039l-8.45-9.039V52.843A2.357,2.357,0,0,1,21.209,55.2H17.961A2.275,2.275,0,0,1,15.7,52.843V13.45L6.255,22.489A2.348,2.348,0,0,1,2.879,22.529Z" transform="translate(185.246 230.421) rotate(-90)"/>
  </g>
</svg>
